<svg width="24" height="24" viewBox="0 0 22 24" fill="none" xmlns="http://www.w3.org/2000/svg">
  <path d="M17.7001 12.6913C17.718 15.5178 18.8518 18.2235 20.8584 20.2183C21.0327 20.3912 21.0856 20.6531 20.9916 20.8804L20.9912 20.8815C20.8964 21.107 20.676 21.2561 20.4284 21.2549H1.57172C1.32419 21.2561 1.10373 21.107 1.00898 20.8814L1.00854 20.8804C0.914595 20.6531 0.967488 20.3912 1.14175 20.2183C3.17063 18.2015 4.30723 15.4578 4.30025 12.5973L4.30025 12.5968L4.30025 10.4925C4.30025 8.97972 4.81219 7.51196 5.75338 6.32787C6.62769 5.22584 7.82501 4.42985 9.17296 4.04761C8.73182 3.42065 8.63969 2.60199 8.94766 1.88438L8.94771 1.88426C9.30018 1.06444 10.1057 0.53333 10.9982 0.53333C11.8907 0.53333 12.6962 1.06444 13.0486 1.88426L13.0487 1.88438C13.3572 2.60324 13.2642 3.42355 12.821 4.05095C14.1892 4.45625 15.3984 5.28217 16.275 6.41524C17.2154 7.63071 17.7176 9.12752 17.7001 10.6642V12.5968L17.7001 12.6913ZM13.9781 21.2549C13.9899 21.1989 14.0002 21.1422 14.0089 21.085L13.8112 21.0549H8.02208C7.99999 21.1423 8.01028 21.1989 8.02208 21.2549ZM13.8112 21.0549H8.02208M8.02208 21.2549H8.18896V21.0549L7.99125 21.0851C7.99999 21.1423 8.01028 21.1989 8.02208 21.2549ZM1.57172 21.2549H20.4284C20.4282 21.2549 20.428 21.2549 20.4278 21.2549L20.429 21.0549H1.57172V21.2549ZM8.02208 21.2549H1.57172H20.4284Z" fill="none" stroke="#213F7D" stroke-width="2"/>
</svg>
